# Blender v2.77 (sub 0) OBJ File: 'gear.blend'
# www.blender.org
mtllib gear.mtl
o Cylinder
v 0.332524 0.062500 0.095803
v 0.332524 0.000000 0.095803
v 0.190544 0.062500 0.190641
v 0.190544 0.000000 0.190641
v 0.095676 0.062500 0.332576
v 0.095676 0.000000 0.332576
v 0.062363 0.062500 0.500000
v 0.062363 0.000000 0.500000
v 0.095676 0.062500 0.667424
v 0.095676 0.000000 0.667424
v 0.190544 0.062500 0.809359
v 0.190544 0.000000 0.809359
v 0.332524 0.062500 0.904197
v 0.332524 0.000000 0.904197
v 0.500000 0.062500 0.937500
v 0.500000 0.000000 0.937500
v 0.667476 0.062500 0.904197
v 0.667476 0.000000 0.904197
v 0.809456 0.062500 0.809359
v 0.809456 0.000000 0.809359
v 0.904324 0.062500 0.667424
v 0.904324 0.000000 0.667424
v 0.937637 0.062500 0.500000
v 0.937637 0.000000 0.500000
v 0.904324 0.062500 0.332576
v 0.904324 0.000000 0.332576
v 0.809456 0.062500 0.190641
v 0.809456 0.000000 0.190641
v 0.667476 0.062500 0.095803
v 0.667476 0.000000 0.095803
v 0.500000 0.062500 0.062500
v 0.500000 0.000000 0.062500
v 0.500000 0.062500 0.500000
v 0.500000 0.000000 0.500000
v 0.306951 0.062500 1.032722
v 0.306951 0.000000 1.032722
v -0.066202 0.062500 0.474435
v -0.066202 0.000000 0.474435
v 0.474427 0.000000 1.066025
v 0.474427 0.062500 1.066025
v 0.259698 0.062500 -0.013155
v 0.259698 0.000000 -0.013155
v 0.117718 0.062500 0.081683
v 0.740303 0.062500 1.013155
v 0.740303 0.000000 1.013155
v 0.882282 0.062500 0.918317
v 0.882282 0.000000 0.918317
v 0.117718 0.000000 0.081683
v -0.013316 0.062500 0.740228
v -0.013316 0.000000 0.740228
v 1.032889 0.062500 0.692989
v 1.032889 0.000000 0.692989
v 1.066202 0.062500 0.525565
v 0.081552 0.062500 0.882163
v 1.066202 0.000000 0.525565
v 0.081552 0.000000 0.882163
v 1.013316 0.062500 0.259773
v 1.013316 0.000000 0.259773
v 0.918448 0.062500 0.117837
v 0.918448 0.000000 0.117837
v -0.032889 0.062500 0.307011
v -0.032889 0.000000 0.307011
v 0.693049 0.062500 -0.032722
v 0.693049 0.000000 -0.032722
v 0.525573 0.000000 -0.066025
v 0.525573 0.062500 -0.066025
vt 0.0000 0.0000
vt 0.0000 0.0000
vt 0.0000 0.0000
vt 0.0000 0.0000
vt 0.0000 0.0000
vt 0.0000 0.0000
vt 0.0000 0.0000
vt 0.0000 0.0000
vt 0.0000 0.0000
vt 0.0000 0.0000
vt 0.0000 0.0000
vt 0.0000 0.0000
vt 0.0000 0.0000
vt 0.0000 0.0000
vt 0.0000 0.0000
vt 0.0000 0.0000
vt 0.0000 0.0000
vt 0.0000 0.0000
vt 0.0000 0.0000
vt 0.0000 0.0000
vt 0.0000 0.0000
vt 0.0000 0.0000
vt 0.0000 0.0000
vt 0.0000 0.0000
vt 0.0000 0.0000
vt 0.0000 0.0000
vt 0.0000 0.0000
vt 0.0000 0.0000
vt 0.0000 0.0000
vt 0.0000 0.0000
vt 0.0000 0.0000
vt 0.0000 0.0000
vt 0.0000 0.0000
vt 0.0000 0.0000
vt 0.0000 0.0000
vt 0.0000 0.0000
vt 0.0000 0.0000
vt 0.0000 0.0000
vt 0.0000 0.0000
vt 0.0000 0.0000
vt 0.0000 0.0000
vt 0.0000 0.0000
vt 0.0000 0.0000
vt 0.0000 0.0000
vt 0.0000 0.0000
vt 0.0000 0.0000
vt 0.0000 0.0000
vt 0.0000 0.0000
vt 0.0000 0.0000
vt 0.0000 0.0000
vt 0.0000 0.0000
vt 0.0000 0.0000
vt 0.0000 0.0000
vt 0.0000 0.0000
vt 0.0000 0.0000
vt 0.0000 0.0000
vt 0.0000 0.0000
vt 0.0000 0.0000
vt 0.0000 0.0000
vt 0.0000 0.0000
vt 0.0000 0.0000
vt 0.0000 0.0000
vt 0.0000 0.0000
vt 0.0000 0.0000
vt 0.0000 0.0000
vt 0.0000 0.0000
vn 0.0000 1.0000 0.0000
vn 0.0000 -1.0000 0.0000
vn -0.1950 0.0000 -0.9808
vn -0.5554 0.0000 0.8316
vn -0.5555 0.0000 -0.8315
vn 0.9808 0.0000 -0.1951
vn -0.8314 0.0000 -0.5557
vn -0.8314 0.0000 0.5557
vn 0.1950 0.0000 0.9808
vn -0.9808 0.0000 -0.1951
vn 0.5555 0.0000 -0.8315
vn -0.9808 0.0000 0.1951
vn 0.5555 0.0000 0.8315
vn 0.8314 0.0000 0.5557
vn 0.1950 0.0000 -0.9808
vn -0.5554 0.0000 -0.8316
vn -0.1950 0.0000 0.9808
vn 0.8314 0.0000 -0.5557
vn 0.5554 0.0000 0.8316
vn 0.9808 0.0000 0.1951
usemtl None
s off
f 33/1/1 31/2/1 1/3/1
f 34/4/2 12/5/2 10/6/2
f 34/4/2 22/7/2 20/8/2
f 2/9/3 1/3/3 31/2/3 32/10/3
f 14/11/4 13/12/4 11/13/4 12/5/4
f 33/1/1 21/14/1 23/15/1
f 28/16/5 27/17/5 59/18/5 60/19/5
f 33/1/1 11/13/1 13/12/1
f 34/4/2 24/20/2 22/7/2
f 33/1/1 1/3/1 3/21/1
f 34/4/2 14/11/2 12/5/2
f 26/22/6 25/23/6 23/15/6 24/20/6
f 34/4/2 4/24/2 2/9/2
f 9/25/5 10/6/5 50/26/5 49/27/5
f 33/1/1 23/15/1 25/23/1
f 6/28/7 5/29/7 3/21/7 4/24/7
f 33/1/1 13/12/1 15/30/1
f 34/4/2 26/22/2 24/20/2
f 33/1/1 3/21/1 5/29/1
f 34/4/2 16/31/2 14/11/2
f 17/32/8 18/33/8 45/34/8 44/35/8
f 34/4/2 6/28/2 4/24/2
f 18/33/9 17/32/9 15/30/9 16/31/9
f 33/1/1 25/23/1 27/17/1
f 13/12/10 14/11/10 36/36/10 35/37/10
f 33/1/1 15/30/1 17/32/1
f 34/4/2 28/16/2 26/22/2
f 33/1/1 5/29/1 7/38/1
f 34/4/2 18/33/2 16/31/2
f 30/39/11 29/40/11 27/17/11 28/16/11
f 34/4/2 8/41/2 6/28/2
f 31/2/1 29/40/1 63/42/1 66/43/1
f 33/1/1 27/17/1 29/40/1
f 10/6/12 9/25/12 7/38/12 8/41/12
f 33/1/1 17/32/1 19/44/1
f 34/4/2 30/39/2 28/16/2
f 33/1/1 7/38/1 9/25/1
f 34/4/2 20/8/2 18/33/2
f 12/5/13 11/13/13 54/45/13 56/46/13
f 34/4/2 10/6/2 8/41/2
f 22/7/14 21/14/14 19/44/14 20/8/14
f 33/1/1 29/40/1 31/2/1
f 24/20/15 23/15/15 53/47/15 55/48/15
f 33/1/1 19/44/1 21/14/1
f 34/4/2 32/10/2 30/39/2
f 34/4/2 2/9/2 32/10/2
f 33/1/1 9/25/1 11/13/1
f 26/22/2 28/16/2 60/19/2 58/49/2
f 48/50/16 43/51/16 41/52/16 42/53/16
f 39/54/17 40/55/17 35/37/17 36/36/17
f 60/19/18 59/18/18 57/56/18 58/49/18
f 38/57/10 37/58/10 61/59/10 62/60/10
f 47/61/19 46/62/19 44/35/19 45/34/19
f 65/63/15 66/43/15 63/42/15 64/64/15
f 56/46/8 54/45/8 49/27/8 50/26/8
f 55/48/20 53/47/20 51/65/20 52/66/20
f 19/44/1 17/32/1 44/35/1 46/62/1
f 8/41/17 7/38/17 37/58/17 38/57/17
f 5/29/15 6/28/15 62/60/15 61/59/15
f 10/6/2 12/5/2 56/46/2 50/26/2
f 14/11/2 16/31/2 39/54/2 36/36/2
f 21/14/17 22/7/17 52/66/17 51/65/17
f 6/28/2 8/41/2 38/57/2 62/60/2
f 15/30/1 13/12/1 35/37/1 40/55/1
f 4/24/8 3/21/8 43/51/8 48/50/8
f 30/39/2 32/10/2 65/63/2 64/64/2
f 16/31/20 15/30/20 40/55/20 39/54/20
f 23/15/1 21/14/1 51/65/1 53/47/1
f 18/33/2 20/8/2 47/61/2 45/34/2
f 1/3/18 2/9/18 42/53/18 41/52/18
f 11/13/1 9/25/1 49/27/1 54/45/1
f 25/23/19 26/22/19 58/49/19 57/56/19
f 7/38/1 5/29/1 61/59/1 37/58/1
f 2/9/2 4/24/2 48/50/2 42/53/2
f 22/7/2 24/20/2 55/48/2 52/66/2
f 20/8/18 19/44/18 46/62/18 47/61/18
f 27/17/1 25/23/1 57/56/1 59/18/1
f 29/40/20 30/39/20 64/64/20 63/42/20
f 3/21/1 1/3/1 41/52/1 43/51/1
f 32/10/10 31/2/10 66/43/10 65/63/10
